<svg xmlns="http://www.w3.org/2000/svg" style="fill-rule:evenodd; clip-rule:evenodd">
    <symbol id="logo" viewBox="0 0 40 40" xmlns="http://www.w3.org/2000/svg">
        <rect width="40" height="40" rx="8" fill="white"/>
        <path d="M15.7659 8.86314C15.869 9.95536 16.0495 11.0476 16.3332 12.1973C16.7458 13.8931 17.21 15.2727 17.7773 16.4799C18.0094 16.9686 18.3446 17.6009 18.783 18.147C18.9119 18.3195 19.0925 18.4919 19.2988 18.5494C19.4277 18.6069 19.5566 18.5494 19.634 18.4057C19.7371 18.262 19.7887 18.0895 19.8403 17.8883C19.9434 17.371 20.0208 16.8536 19.995 16.3362C19.995 15.8189 19.9692 15.3015 19.9176 14.7554C19.8403 13.8644 19.6856 12.9733 19.4793 11.9961C19.1698 10.5302 18.7572 9.15056 18.2157 7.85714C18.1383 7.85714 18.0867 7.88589 18.0094 7.88589C17.932 7.88589 17.8804 7.91463 17.8031 7.91463C17.1584 8.0296 16.4879 8.25954 15.7143 8.57571C15.7143 8.66194 15.7401 8.71942 15.7401 8.77691L15.7659 8.86314Z" fill="#F18C53"/>
        <path d="M23.667 27.765C23.2288 25.9793 22.739 24.568 22.1203 23.3295C21.811 22.6959 21.5274 22.235 21.1923 21.8318C21.0376 21.6302 20.8829 21.515 20.7282 21.4574C20.6767 21.4286 20.6509 21.4286 20.5994 21.4286C20.4962 21.4286 20.4189 21.4862 20.3673 21.5438C20.2642 21.7166 20.1869 21.8606 20.1611 22.0334C20.0322 22.5806 19.9807 23.1279 20.0064 23.6463C20.0064 24.6832 20.1096 25.7488 20.3416 27.0449C20.6509 28.8306 21.1407 30.5588 21.7852 32.1429C22.6101 31.9988 23.4092 31.7684 24.2084 31.4228C24.2342 31.4228 24.2599 31.394 24.2857 31.394C24.2857 31.3652 24.2857 31.3364 24.2857 31.3076C24.131 30.1267 23.9506 28.9171 23.667 27.765Z" fill="#F18C53"/>
        <path d="M32.0321 21.3915C31.9767 21.3636 31.8936 21.3358 31.8382 21.308C29.8445 20.5009 27.9614 20.0557 26.1892 20C26.0784 20 25.9676 20 25.8569 20C25.4969 20 25.2477 20.0278 24.9707 20.0557C24.6661 20.0835 24.3061 20.1391 23.9738 20.3061C23.8354 20.3896 23.6415 20.5009 23.5862 20.6679C23.5308 20.8349 23.6415 21.0575 23.7523 21.1967C23.7523 21.2245 23.78 21.2245 23.8077 21.2523C23.9738 21.475 24.1954 21.6698 24.4723 21.8646C25.0815 22.3377 25.8015 22.7273 26.7153 23.0891C28.2383 23.7013 29.8168 24.1187 31.3952 24.2857C31.7552 23.3673 32.0044 22.4211 32.1429 21.475C32.1429 21.4471 32.1429 21.4471 32.1429 21.4193C32.1152 21.4193 32.1152 21.4193 32.0875 21.3915H32.0321Z" fill="#F18C53"/>
        <path d="M22.6606 17.8571C22.8433 17.8571 22.9651 17.8295 23.1174 17.8018C23.9396 17.6357 24.6401 17.2481 25.1883 16.9435C26.985 15.8915 28.5991 14.4795 30 12.7907C29.3909 12.0709 28.66 11.4341 27.7159 10.7143C27.4114 10.9081 27.1069 11.1296 26.8023 11.3511C25.1578 12.5969 23.9092 13.8981 22.9651 15.3101C22.6606 15.7807 22.2951 16.3621 22.1733 17.0266C22.1429 17.1927 22.1124 17.4142 22.2038 17.5803C22.2038 17.7464 22.2951 17.8571 22.6606 17.8571Z" fill="#F18C53"/>
        <path d="M13.9804 20C14.396 20 14.673 20 14.9501 19.9724C15.3103 19.9447 15.7536 19.8618 16.1138 19.6682C16.28 19.5853 16.3909 19.4747 16.4186 19.3364C16.4463 19.2258 16.4186 19.0599 16.3078 18.894C16.28 18.8387 16.2523 18.8111 16.2246 18.7558C16.0861 18.5622 15.9199 18.3963 15.6982 18.2304C15.2272 17.8433 14.7008 17.5392 14.0081 17.2074C12.3457 16.4332 10.5447 15.9355 8.63294 15.7143C8.27275 16.6267 7.99568 17.5945 7.85715 18.5622C8.24504 18.7281 8.63294 18.894 9.04854 19.0323C10.8218 19.6406 12.4842 19.9724 13.9804 20Z" fill="#F18C53"/>
        <path d="M17.8571 22.6778C17.8571 22.65 17.8571 22.6222 17.8571 22.6222C17.8571 22.2891 17.7464 22.178 17.4142 22.1502C17.1927 22.1225 16.9712 22.178 16.7774 22.2335C16.1683 22.4001 15.5592 22.7055 14.8394 23.2331C13.289 24.2603 11.9048 25.593 10.7143 27.1756V27.2034C10.7143 27.2034 10.7143 27.2311 10.742 27.2311C11.268 27.9253 11.9324 28.5638 12.7907 29.2857C13.9812 28.425 15.0609 27.37 16.0022 26.2039C16.722 25.3432 17.1927 24.5658 17.5526 23.7606C17.7464 23.3441 17.8295 23.0109 17.8571 22.6778Z" fill="#F18C53"/>
        <path d="M27.2441 17.5714C27.0536 18 27.1352 18.3673 27.4618 18.7041C27.5707 18.7959 27.6795 18.8878 27.8156 18.949C28.3599 19.2245 28.9586 19.2857 29.5302 19.2857C29.639 19.2857 29.7751 19.2551 29.884 19.2551C30.0745 19.2551 30.265 19.2245 30.4555 19.1939C31.0542 19.102 31.5985 18.9184 32.1429 18.7041C32.0068 17.449 31.7074 16.1939 31.272 15C30.8909 15.0612 30.5644 15.1837 30.2378 15.2755C29.3941 15.551 28.7137 15.949 28.115 16.4694C27.6795 16.8367 27.4074 17.1735 27.2441 17.5714Z" fill="#F18C53"/>
        <path d="M18.8232 27.5956C18.6999 27.4061 18.5457 27.2978 18.3916 27.2166C18.0832 27.0813 17.7441 27.1354 17.3741 27.352C16.7266 27.7039 16.3258 28.2452 16.0483 28.6783C15.555 29.4361 15.2158 30.2752 15 31.2496C16.2025 31.7098 17.4666 32.0075 18.7307 32.1429C19.1316 31.1955 19.2857 30.3564 19.2857 29.4361C19.2857 29.3279 19.2549 29.0572 19.2241 28.7865C19.1932 28.2993 19.0699 27.9204 18.8232 27.5956Z" fill="#F18C53"/>
        <path d="M12.5872 21.3265C12.4784 21.2041 12.3153 21.1122 12.1522 21.0204C11.5814 20.7449 10.9833 20.7143 10.4668 20.7143C9.65129 20.7143 8.7814 20.898 7.85715 21.2653C7.99307 22.5204 8.29209 23.7755 8.75422 25C9.32508 24.9082 9.86877 24.7245 10.4124 24.4796C11.2552 24.1122 11.8804 23.6531 12.3697 23.102C12.5872 22.8571 12.7231 22.6122 12.8046 22.3673C12.9134 21.9388 12.859 21.602 12.5872 21.3265Z" fill="#F18C53"/>
        <path d="M21.1459 12.393C21.4234 12.8276 21.8551 12.9634 22.3792 12.7733C22.7184 12.6375 23.0267 12.4473 23.3042 12.1214C24.1367 11.2251 24.6917 10.1658 25 8.72629C23.7667 8.26456 22.5334 7.96579 21.2693 7.85714C20.8993 8.75345 20.7143 9.62261 20.7143 10.5189C20.7143 10.709 20.7143 10.8992 20.7451 11.1165C20.776 11.6325 20.9301 12.0399 21.1459 12.393Z" fill="#F18C53"/>
        <path d="M29.7727 27.2414C29.0341 26.408 28.267 25.8046 27.4432 25.4023C27.0455 25.2011 26.5625 25 25.9943 25H25.8523C25.2557 25.0287 25 25.5172 25 25.9483C25 26.408 25.1136 26.8391 25.3693 27.3563C25.7955 28.2759 26.4489 29.1092 27.358 29.9138C27.3864 29.9425 27.4432 30 27.4716 30C27.5 29.9713 27.5568 29.9425 27.5852 29.9138C28.4943 29.2241 29.2898 28.3908 30 27.4425C29.9432 27.3851 29.9148 27.3563 29.8864 27.2989C29.8295 27.3276 29.8011 27.2701 29.7727 27.2414Z" fill="#F18C53"/>
        <path d="M11.9429 14.2525C12.6857 14.7377 13.3143 14.9375 13.9429 14.9946C14.2571 15.0231 14.5143 14.9375 14.7143 14.7663C14.9143 14.5665 15 14.2525 15 13.853C15 13.5676 14.8571 13.1109 14.6286 12.6257C14.1714 11.6839 13.4857 10.8277 12.5429 10C11.6 10.7135 10.7429 11.5697 10 12.5401C10.5714 13.2251 11.2286 13.7959 11.9429 14.2525Z" fill="#F18C53"/>
    </symbol>

    <symbol id="Analytics" viewBox="0 0 20 20" xmlns="http://www.w3.org/2000/svg">
        <path d="M0.833328 2.5C0.833328 2.03976 1.20642 1.66667 1.66666 1.66667H18.3333C18.7936 1.66667 19.1667 2.03976 19.1667 2.5C19.1667 2.96024 18.7936 3.33333 18.3333 3.33333V9.36777C18.3333 10.0386 18.3333 10.5922 18.2965 11.0432C18.2582 11.5116 18.1761 11.9422 17.97 12.3466C17.6504 12.9738 17.1405 13.4838 16.5133 13.8034C16.1088 14.0094 15.6783 14.0916 15.2098 14.1298C14.7588 14.1667 14.2052 14.1667 13.5344 14.1667H12.3017L15.5335 16.8598C15.887 17.1545 15.9348 17.6799 15.6402 18.0335C15.3455 18.3871 14.8201 18.4348 14.4665 18.1402L11.1737 15.3962C11.0422 15.2866 10.9306 15.1937 10.8333 15.1142V17.5C10.8333 17.9602 10.4602 18.3333 9.99999 18.3333C9.53976 18.3333 9.16666 17.9602 9.16666 17.5V15.1143C9.0694 15.1937 8.95783 15.2866 8.82632 15.3962L5.53348 18.1402C5.17992 18.4348 4.65445 18.3871 4.35981 18.0335C4.06517 17.6799 4.11294 17.1545 4.46651 16.8598L7.69829 14.1667H6.4656C5.79478 14.1667 5.24114 14.1667 4.79014 14.1298C4.32173 14.0916 3.89114 14.0094 3.48669 13.8034C2.85949 13.4838 2.34955 12.9738 2.02997 12.3466C1.8239 11.9422 1.74176 11.5116 1.70349 11.0432C1.66664 10.5922 1.66665 10.0386 1.66666 9.36775V3.33333C1.20642 3.33333 0.833328 2.96024 0.833328 2.5ZM3.33333 3.33333V9.33334C3.33333 10.0472 3.33398 10.5324 3.36462 10.9075C3.39447 11.2728 3.44858 11.4597 3.51498 11.59C3.67477 11.9036 3.92974 12.1586 4.24334 12.3183C4.37368 12.3848 4.56051 12.4389 4.92586 12.4687C5.30093 12.4994 5.78618 12.5 6.49999 12.5H13.5C14.2138 12.5 14.6991 12.4994 15.0741 12.4687C15.4395 12.4389 15.6263 12.3848 15.7566 12.3183C16.0702 12.1586 16.3252 11.9036 16.485 11.59C16.5514 11.4597 16.6055 11.2728 16.6354 10.9075C16.666 10.5324 16.6667 10.0472 16.6667 9.33334V3.33333H3.33333ZM13.3333 5C13.7936 5 14.1667 5.3731 14.1667 5.83333V10C14.1667 10.4602 13.7936 10.8333 13.3333 10.8333C12.8731 10.8333 12.5 10.4602 12.5 10V5.83333C12.5 5.3731 12.8731 5 13.3333 5ZM9.99999 6.66667C10.4602 6.66667 10.8333 7.03976 10.8333 7.5V10C10.8333 10.4602 10.4602 10.8333 9.99999 10.8333C9.53976 10.8333 9.16666 10.4602 9.16666 10V7.5C9.16666 7.03976 9.53976 6.66667 9.99999 6.66667ZM6.66666 8.33334C7.1269 8.33334 7.49999 8.70643 7.49999 9.16667V10C7.49999 10.4602 7.1269 10.8333 6.66666 10.8333C6.20642 10.8333 5.83333 10.4602 5.83333 10V9.16667C5.83333 8.70643 6.20642 8.33334 6.66666 8.33334Z" />
    </symbol>

</svg>
